<?xml version="1.0" encoding="UTF-8" standalone="no"?>
<!-- Created with Inkscape (http://www.inkscape.org/) -->

<svg
   xmlns:dc="http://purl.org/dc/elements/1.1/"
   xmlns:cc="http://creativecommons.org/ns#"
   xmlns:rdf="http://www.w3.org/1999/02/22-rdf-syntax-ns#"
   xmlns:svg="http://www.w3.org/2000/svg"
   xmlns="http://www.w3.org/2000/svg"
   xmlns:sodipodi="http://sodipodi.sourceforge.net/DTD/sodipodi-0.dtd"
   xmlns:inkscape="http://www.inkscape.org/namespaces/inkscape"
   width="45.041653mm"
   height="9.8558731mm"
   viewBox="0 0 45.041653 9.8558733"
   version="1.1"
   id="svg8"
   sodipodi:docname="listmonk.svg"
   inkscape:version="0.92.3 (2405546, 2018-03-11)">
  <defs
     id="defs2" />
  <sodipodi:namedview
     id="base"
     pagecolor="#ffffff"
     bordercolor="#666666"
     borderopacity="1.0"
     inkscape:pageopacity="0.0"
     inkscape:pageshadow="2"
     inkscape:zoom="1"
     inkscape:cx="71.96648"
     inkscape:cy="2.639304"
     inkscape:document-units="mm"
     inkscape:current-layer="layer1"
     showgrid="false"
     inkscape:window-width="1853"
     inkscape:window-height="1025"
     inkscape:window-x="67"
     inkscape:window-y="27"
     inkscape:window-maximized="1"
     fit-margin-top="0"
     fit-margin-left="0"
     fit-margin-right="0"
     fit-margin-bottom="0" />
  <metadata
     id="metadata5">
    <rdf:RDF>
      <cc:Work
         rdf:about="">
        <dc:format>image/svg+xml</dc:format>
        <dc:type
           rdf:resource="http://purl.org/dc/dcmitype/StillImage" />
        <dc:title></dc:title>
      </cc:Work>
    </rdf:RDF>
  </metadata>
  <g
     inkscape:label="Layer 1"
     inkscape:groupmode="layer"
     id="layer1"
     transform="translate(-12.438455,-21.535559)">
    <path
       style="fill:#ffcc00;fill-opacity:1;stroke:none;stroke-width:2.11094689;stroke-miterlimit:4;stroke-dasharray:none;stroke-opacity:1"
       d="m 16.660914,21.535559 a 4.2220837,4.2220837 0 0 0 -4.222459,4.222437 4.2220837,4.2220837 0 0 0 0.490699,1.968681 c 0.649637,-1.386097 2.059696,-2.343758 3.73176,-2.343758 1.672279,0 3.082188,0.958029 3.731731,2.344413 a 4.2220837,4.2220837 0 0 0 0.490039,-1.969336 4.2220837,4.2220837 0 0 0 -4.22177,-4.222437 z"
       id="circle920"
       inkscape:connector-curvature="0"
       inkscape:export-filename="/home/kailash/Site/listmonk/static/logo.png"
       inkscape:export-xdpi="96"
       inkscape:export-ydpi="96" />
    <flowRoot
       xml:space="preserve"
       id="flowRoot935"
       style="font-style:normal;font-weight:normal;font-size:40px;line-height:1.25;font-family:sans-serif;letter-spacing:0px;word-spacing:0px;fill:#000000;fill-opacity:1;stroke:none"
       transform="matrix(0.27888442,0,0,0.27888442,92.852428,101.67857)"><flowRegion
         id="flowRegion937"><rect
           id="rect939"
           width="338"
           height="181"
           x="-374"
           y="-425.36423" /></flowRegion><flowPara
         id="flowPara941" /></flowRoot>    <g
       aria-label="listmonk"
       style="font-style:normal;font-variant:normal;font-weight:500;font-stretch:normal;font-size:8.70788765px;line-height:1.25;font-family:'IBM Plex Sans';-inkscape-font-specification:'IBM Plex Sans, Medium';font-variant-ligatures:normal;font-variant-caps:normal;font-variant-numeric:normal;font-feature-settings:normal;text-align:start;letter-spacing:0px;word-spacing:0px;writing-mode:lr-tb;text-anchor:start;fill:#000000;fill-opacity:1;stroke:none;stroke-width:0.0459737"
       id="text874-8">
      <path
         d="m 23.743166,30.29347 h 1.044946 v -6.583163 h -1.044946 z"
         style="font-style:normal;font-variant:normal;font-weight:bold;font-stretch:normal;font-size:8.70788765px;font-family:'Avenir LT Std';-inkscape-font-specification:'Avenir LT Std Bold';font-variant-ligatures:normal;font-variant-caps:normal;font-variant-numeric:normal;font-feature-settings:normal;text-align:start;writing-mode:lr-tb;text-anchor:start;stroke-width:0.0459737"
         id="path884" />
      <path
         d="m 26.005176,30.29347 h 1.044946 v -4.179786 h -1.044946 z m -0.148035,-5.599171 c 0,0.330899 0.278653,0.626968 0.6618,0.626968 0.383147,0 0.679215,-0.269945 0.679215,-0.626968 0,-0.357024 -0.296068,-0.626968 -0.679215,-0.626968 -0.383147,0 -0.6618,0.296068 -0.6618,0.626968 z"
         style="font-style:normal;font-variant:normal;font-weight:bold;font-stretch:normal;font-size:8.70788765px;font-family:'Avenir LT Std';-inkscape-font-specification:'Avenir LT Std Bold';font-variant-ligatures:normal;font-variant-caps:normal;font-variant-numeric:normal;font-feature-settings:normal;text-align:start;writing-mode:lr-tb;text-anchor:start;stroke-width:0.0459737"
         id="path886" />
      <path
         d="m 31.17562,26.644865 c -0.339608,-0.461518 -0.931744,-0.635675 -1.489049,-0.635675 -0.844665,0 -1.680622,0.417978 -1.680622,1.349722 0,1.593544 2.255343,0.914328 2.255343,1.776409 0,0.3309 -0.391855,0.478934 -0.696631,0.478934 -0.444103,0 -0.722755,-0.217697 -0.992699,-0.513765 l -0.696632,0.653091 c 0.426687,0.478934 0.983992,0.644384 1.628375,0.644384 0.853373,0 1.802533,-0.348315 1.802533,-1.341015 0,-1.628375 -2.255343,-1.018823 -2.255343,-1.767701 0,-0.313484 0.3309,-0.444102 0.609552,-0.444102 0.357024,0 0.61826,0.148034 0.818542,0.426686 z"
         style="font-style:normal;font-variant:normal;font-weight:bold;font-stretch:normal;font-size:8.70788765px;font-family:'Avenir LT Std';-inkscape-font-specification:'Avenir LT Std Bold';font-variant-ligatures:normal;font-variant-caps:normal;font-variant-numeric:normal;font-feature-settings:normal;text-align:start;writing-mode:lr-tb;text-anchor:start;stroke-width:0.0459737"
         id="path888" />
      <path
         d="m 32.484933,27.001889 v 1.915735 c 0,0.983991 0.261236,1.480341 1.367138,1.480341 0.243821,0 0.609552,-0.03483 0.827249,-0.139326 v -0.879497 c -0.130618,0.09579 -0.383147,0.130618 -0.566012,0.130618 -0.461518,0 -0.583429,-0.261236 -0.583429,-0.679215 v -1.828656 h 1.149441 v -0.888205 h -1.149441 v -1.210396 h -1.044946 v 1.210396 h -0.862081 v 0.888205 z"
         style="font-style:normal;font-variant:normal;font-weight:bold;font-stretch:normal;font-size:8.70788765px;font-family:'Avenir LT Std';-inkscape-font-specification:'Avenir LT Std Bold';font-variant-ligatures:normal;font-variant-caps:normal;font-variant-numeric:normal;font-feature-settings:normal;text-align:start;writing-mode:lr-tb;text-anchor:start;stroke-width:0.0459737"
         id="path890" />
      <path
         d="m 35.451465,30.29347 h 1.044947 v -2.281466 c 0,-0.557305 0.269944,-1.062362 0.957867,-1.062362 0.505058,0 0.714047,0.339607 0.714047,0.853373 v 2.490455 h 1.044947 v -2.26405 c 0,-0.539889 0.243821,-1.079778 0.896912,-1.079778 0.61826,0 0.775002,0.45281 0.775002,0.975283 v 2.368545 h 1.044947 v -2.490455 c 0,-1.001408 -0.391855,-1.793825 -1.506465,-1.793825 -0.626968,0 -1.07107,0.243821 -1.375846,0.775002 -0.217697,-0.522474 -0.6618,-0.775002 -1.306183,-0.775002 -0.696631,0 -1.097194,0.365731 -1.28006,0.757586 h -0.01742 v -0.653092 h -0.992699 z"
         style="font-style:normal;font-variant:normal;font-weight:bold;font-stretch:normal;font-size:8.70788765px;font-family:'Avenir LT Std';-inkscape-font-specification:'Avenir LT Std Bold';font-variant-ligatures:normal;font-variant-caps:normal;font-variant-numeric:normal;font-feature-settings:normal;text-align:start;writing-mode:lr-tb;text-anchor:start;stroke-width:0.0459737"
         id="path892" />
      <path
         d="m 42.854394,28.203577 c 0,1.314891 1.010115,2.194388 2.272758,2.194388 1.262644,0 2.272759,-0.879497 2.272759,-2.194388 0,-1.314891 -1.010115,-2.194387 -2.272759,-2.194387 -1.262643,0 -2.272758,0.879496 -2.272758,2.194387 z m 1.044946,0 c 0,-0.653091 0.461518,-1.253935 1.227812,-1.253935 0.766295,0 1.227813,0.600844 1.227813,1.253935 0,0.653092 -0.461518,1.253936 -1.227813,1.253936 -0.766294,0 -1.227812,-0.600844 -1.227812,-1.253936 z"
         style="font-style:normal;font-variant:normal;font-weight:bold;font-stretch:normal;font-size:8.70788765px;font-family:'Avenir LT Std';-inkscape-font-specification:'Avenir LT Std Bold';font-variant-ligatures:normal;font-variant-caps:normal;font-variant-numeric:normal;font-feature-settings:normal;text-align:start;writing-mode:lr-tb;text-anchor:start;stroke-width:0.0459737"
         id="path894" />
      <path
         d="m 48.369753,30.29347 h 1.044946 v -2.281466 c 0,-0.557305 0.269945,-1.062362 0.957868,-1.062362 0.731463,0 0.766294,0.766294 0.766294,1.227812 v 2.116016 h 1.044947 v -2.63849 c 0,-0.853373 -0.400563,-1.64579 -1.523881,-1.64579 -0.696631,0 -1.088486,0.357023 -1.280059,0.775002 h -0.01742 v -0.670508 h -0.992699 z"
         style="font-style:normal;font-variant:normal;font-weight:bold;font-stretch:normal;font-size:8.70788765px;font-family:'Avenir LT Std';-inkscape-font-specification:'Avenir LT Std Bold';font-variant-ligatures:normal;font-variant-caps:normal;font-variant-numeric:normal;font-feature-settings:normal;text-align:start;writing-mode:lr-tb;text-anchor:start;stroke-width:0.0459737"
         id="path896" />
      <path
         d="m 53.369984,30.29347 h 1.044946 v -2.133432 h 0.01742 l 1.663206,2.133432 h 1.384555 l -1.907028,-2.281466 1.793825,-1.89832 h -1.341015 l -1.610959,1.73287 v -4.136247 h -1.044946 z"
         style="font-style:normal;font-variant:normal;font-weight:bold;font-stretch:normal;font-size:8.70788765px;font-family:'Avenir LT Std';-inkscape-font-specification:'Avenir LT Std Bold';font-variant-ligatures:normal;font-variant-caps:normal;font-variant-numeric:normal;font-feature-settings:normal;text-align:start;writing-mode:lr-tb;text-anchor:start;stroke-width:0.0459737"
         id="path898" />
    </g>
    <circle
       r="3.1873188"
       cy="27.647591"
       cx="16.66629"
       id="circle876-1"
       style="fill:none;fill-opacity:1;stroke:#7f2aff;stroke-width:1.11304522;stroke-miterlimit:4;stroke-dasharray:none;stroke-opacity:1"
       inkscape:export-filename="/home/kailash/Site/listmonk/static/logo.png"
       inkscape:export-xdpi="96"
       inkscape:export-ydpi="96" />
    <path
       inkscape:connector-curvature="0"
       id="path878-0"
       d="m 16.666291,24.813242 a 3.1873187,3.8372081 0 0 0 -3.187196,3.837044 3.1873187,3.8372081 0 0 0 0.07347,0.79818 3.1873187,3.8372081 0 0 1 3.113724,-3.027362 3.1873187,3.8372081 0 0 1 3.113721,3.038883 3.1873187,3.8372081 0 0 0 0.07347,-0.809701 3.1873187,3.8372081 0 0 0 -3.187196,-3.837044 z"
       style="fill:#7f2aff;fill-opacity:1;stroke:none;stroke-width:1.22125876;stroke-miterlimit:4;stroke-dasharray:none;stroke-opacity:1"
       inkscape:export-filename="/home/kailash/Site/listmonk/static/logo.png"
       inkscape:export-xdpi="96"
       inkscape:export-ydpi="96" />
  </g>
</svg>
